<svg width="16" height="16" viewBox="0 0 16 16" fill="none" xmlns="http://www.w3.org/2000/svg">
<path d="M13.5 7V4" stroke="black" stroke-linecap="round" stroke-linejoin="round"/>
<path d="M15 5.5H12" stroke="black" stroke-linecap="round" stroke-linejoin="round"/>
<path d="M10.5 1.5V3.5" stroke="black" stroke-linecap="round" stroke-linejoin="round"/>
<path d="M11.5 2.5H9.5" stroke="black" stroke-linecap="round" stroke-linejoin="round"/>
<path d="M13.5437 9.53749C12.562 9.81277 11.5248 9.82179 10.5384 9.56363C9.55214 9.30546 8.65232 8.78943 7.9314 8.06851C7.21048 7.34759 6.69445 6.44777 6.43629 5.46146C6.17813 4.47516 6.18715 3.43791 6.46242 2.45624C5.49459 2.72562 4.61422 3.24388 3.90901 3.95938C3.2038 4.67489 2.69837 5.56268 2.44304 6.53432C2.18772 7.50595 2.19142 8.52753 2.45378 9.49729C2.71614 10.4671 3.228 11.3512 3.93838 12.0615C4.64876 12.7719 5.53286 13.2838 6.50262 13.5461C7.47238 13.8085 8.49396 13.8122 9.4656 13.5569C10.4372 13.3015 11.325 12.7961 12.0405 12.0909C12.756 11.3857 13.2743 10.5053 13.5437 9.53749Z" stroke="black" stroke-linecap="round" stroke-linejoin="round"/>
</svg>
